Coordinates
version=1
nRows=26
nColumns=24
inDegrees=yes

Units are S.I. units (second, meters, Newtons, ...)
Angles are in degrees.

endheader
time	pelvis_tilt	pelvis_list	pelvis_rotation	pelvis_tx	pelvis_ty	pelvis_tz	hip_flexion_r	hip_adduction_r	hip_rotation_r	knee_angle_r	ankle_angle_r	subtalar_angle_r	mtp_angle_r	hip_flexion_l	hip_adduction_l	hip_rotation_l	knee_angle_l	ankle_angle_l	subtalar_angle_l	mtp_angle_l	lumbar_extension	lumbar_bending	lumbar_rotation
      1.30000000	     -0.57353167	     -4.65084634	     -0.02189800	      0.04988231	      1.03826596	      0.35354203	    -19.48186414	     10.82709914	     -5.29259559	     -3.09636442	      6.43351137	     -7.02504631	     -2.78514626	     24.99444085	     -1.41400398	     -7.62341802	      1.64857880	     13.87556229	     10.52068960	     -2.60826508	      6.60895315	      8.10175322	      0.84234329
      1.30416667	     -0.56915694	     -4.61430743	     -0.06265472	      0.05565240	      1.03799173	      0.35355505	    -19.63645811	     10.74590352	     -5.28190891	     -3.43500860	      6.30943149	     -7.00081845	     -2.77567816	     24.95083427	     -1.37240085	     -7.58622384	      1.21857892	     13.93385850	     10.47804234	     -2.61714689	      6.67876801	      8.01755293	      0.87795113
      1.30833333	     -0.56035080	     -4.49241915	     -0.12631135	      0.06171528	      1.03778244	      0.35355329	    -19.80825126	     10.55901427	     -5.35719654	     -3.75519890	      5.93331455	     -6.93291104	     -2.74299013	     24.84455115	     -1.24658165	     -7.60762503	      0.83237171	     14.14693426	     10.33700943	     -2.64506808	      6.71482999	      7.85274217	      0.97480581
      1.31250000	     -0.51484860	     -4.40909239	     -0.18041597	      0.06766844	      1.03763796	      0.35355297	    -19.99966377	     10.41680540	     -5.39799384	     -4.10597331	      5.64201067	     -6.87845877	     -2.69484758	     24.69567649	     -1.16145195	     -7.53520385	      0.45696963	     14.16269785	     10.20892068	     -2.68204058	      6.73340200	      7.72539227	      1.08687539
      1.31666667	     -0.51535794	     -4.37545350	     -0.23348620	      0.07354994	      1.03743908	      0.35354831	    -20.12558595	     10.33041334	     -5.36427535	     -4.49636836	      5.55834072	     -6.87635016	     -2.68458011	     24.60370341	     -1.12889149	     -7.45630901	      0.06444251	     14.12927906	     10.17693922	     -2.68849235	      6.80001540	      7.66656892	      1.11601331
      1.32083333	     -0.46642895	     -4.24119543	     -0.35577121	      0.07973285	      1.03740350	      0.35357492	    -20.30723559	     10.10019145	     -5.43435788	     -4.88283382	      5.10156236	     -6.83076536	     -2.63345156	     24.37794173	     -1.01284130	     -7.48309864	     -0.22081862	     14.03810425	      9.91036677	     -2.71877463	      6.82823565	      7.50573236	      1.23720109
      1.32500000	     -0.45881974	     -4.20815092	     -0.41050422	      0.08567681	      1.03726522	      0.35357174	    -20.42000796	     10.01169998	     -5.40334950	     -5.30569890	      4.99009322	     -6.82699237	     -2.61845901	     24.24054536	     -0.98332649	     -7.39126554	     -0.56939227	     13.96664181	      9.86097237	     -2.72540248	      6.89392938	      7.42806527	      1.27792657
      1.32916667	     -0.40850548	     -4.04052354	     -0.55885566	      0.09202764	      1.03732470	      0.35359960	    -20.58418788	      9.72940850	     -5.48505894	     -5.73172529	      4.46212705	     -6.78209173	     -2.55752122	     23.95126523	     -0.83575009	     -7.42453810	     -0.74678866	     13.66573085	      9.52017423	     -2.75110618	      6.91844027	      7.25270655	      1.41956010
      1.33333333	     -0.18321484	     -3.93877749	     -0.57567335	      0.09801809	      1.03754627	      0.35343496	    -20.91007626	      9.55604232	     -5.56161413	     -6.16661880	      4.12920914	     -6.70592534	     -2.29225628	     23.48742501	     -0.70103158	     -7.01534522	     -0.88600894	     13.21197678	      8.68285868	     -2.80425030	      6.63668326	      7.08530909	      1.79602762
      1.33750000	     -0.18737704	     -3.90384704	     -0.67541773	      0.10406473	      1.03751285	      0.35342959	    -20.95570937	      9.43663747	     -5.56938268	     -6.70469177	      3.98431800	     -6.71213809	     -2.27386133	     23.29909429	     -0.67975561	     -6.99714913	     -1.11380452	     13.12242058	      8.64882330	     -2.80706802	      6.75871669	      7.03199867	      1.81184669
      1.34166667	     -0.16158111	     -3.73846472	     -0.84686111	      0.11051844	      1.03763507	      0.35347914	    -21.04715104	      9.14057201	     -5.64184766	     -7.19582680	      3.35837405	     -6.59735207	     -2.16184549	     22.99623142	     -0.54032762	     -7.17604953	     -1.21604045	     12.55123786	      8.27203332	     -2.81943608	      6.86899551	      6.82330427	      1.92470454
      1.34583333	     -0.06531033	     -3.60828056	     -0.95435396	      0.11679624	      1.03783737	      0.35339460	    -21.18652631	      8.89550808	     -5.71257214	     -7.73860309	      2.91246058	     -6.51696206	     -1.87370668	     22.59464973	     -0.40183548	     -6.93177367	     -1.22168671	     11.92579785	      7.58108513	     -2.80547567	      6.74805751	      6.64133852	      2.15432023
      1.35000000	     -0.06192165	     -3.48591230	     -1.11561065	      0.12316133	      1.03797653	      0.35338432	    -21.19299321	      8.63952614	     -5.81697634	     -8.36119229	      2.59443028	     -6.52377721	     -1.80555986	     22.30888325	     -0.29508220	     -7.06189779	     -1.29291836	     11.63271539	      7.40417325	     -2.80089095	      6.88957155	      6.62529179	      2.18181853
      1.35416667	     -0.02249415	     -3.37265171	     -1.24881814	      0.12948764	      1.03818436	      0.35341415	    -21.22566740	      8.40718896	     -5.86390302	     -8.97355125	      2.00387331	     -6.43165265	     -1.68302214	     21.98961159	     -0.19602964	     -7.18454314	     -1.34194444	     10.94310715	      7.02440418	     -2.78909742	      6.98719455	      6.39519065	      2.28906910
      1.35833333	     -0.04307167	     -3.24137740	     -1.42348681	      0.13591119	      1.03835663	      0.35340880	    -21.16724854	      8.12793996	     -5.93821470	     -9.66174195	      1.63025456	     -6.43637444	     -1.60016571	     21.69281677	     -0.07835507	     -7.18897797	     -1.33086543	     10.49830818	      6.76986948	     -2.77538642	      7.02842058	      6.31394814	      2.34781339
      1.36250000	      0.15293727	     -3.12295014	     -1.48447955	      0.14208877	      1.03879858	      0.35319039	    -21.31486548	      7.88392156	     -6.07803413	    -10.34278143	      1.06718199	     -6.37545270	     -1.07096028	     21.15871695	      0.08440401	     -6.76795348	     -1.23894511	      9.48682087	      5.32393614	     -2.62561030	      6.92568791	      6.15225580	      2.69905907
      1.36666667	      0.13010879	     -2.99767853	     -1.64469002	      0.14851519	      1.03903349	      0.35322227	    -21.20469348	      7.61213828	     -6.16911399	    -11.09656944	      0.50888848	     -6.25193112	     -0.92886890	     20.89496290	      0.19234245	     -6.99832658	     -1.28122599	      8.94506452	      5.12854835	     -2.58529624	      7.08456024	      5.96037461	      2.73339050
      1.37083333	      0.14853785	     -2.86181541	     -1.79118694	      0.15492067	      1.03934489	      0.35322012	    -21.11492591	      7.32587285	     -6.26564480	    -11.88385561	     -0.07276719	     -6.18982541	     -0.77088318	     20.57942248	      0.32050400	     -7.12405768	     -1.29266775	      8.25546117	      4.79942957	     -2.53717591	      7.18510967	      5.79257345	      2.79412778
      1.37500000	      0.19566923	     -2.73367725	     -1.91939898	      0.16123284	      1.03972730	      0.35317066	    -21.03353974	      7.04729817	     -6.28716224	    -12.69341144	     -0.68229586	     -6.14305519	     -0.33246817	     20.19853608	      0.45923368	     -6.82044541	     -1.21257038	      7.34608883	      3.91070786	     -2.37072419	      7.20374104	      5.58777204	      2.96834002
      1.37916667	      0.20629394	     -2.59127535	     -2.03662891	      0.16760786	      1.04007544	      0.35307276	    -20.86888861	      6.74422161	     -6.51600185	    -13.59286649	     -1.23438021	     -6.08114744	     -0.16236345	     19.92934460	      0.60922658	     -7.06954923	     -1.30684984	      6.84837692	      3.56396788	     -2.30624693	      7.31776035	      5.46798222	      3.00513934
      1.38333333	      0.24101031	     -2.43540375	     -2.16833524	      0.17395295	      1.04050399	      0.35301446	    -20.72351621	      6.42098520	     -6.54829755	    -14.48122180	     -1.90909021	     -6.01736825	      0.33479264	     19.56330818	      0.77600430	     -6.74291670	     -1.23288099	      5.90402854	      2.71960304	     -2.09856813	      7.36110522	      5.25395962	      3.13817481
      1.38750000	      0.24809230	     -2.27816076	     -2.26395934	      0.18029434	      1.04089728	      0.35288614	    -20.50022263	      6.09690805	     -6.80909342	    -15.46163440	     -2.52241273	     -5.92717638	      0.52002119	     19.31994396	      0.94649187	     -6.99834709	     -1.36786362	      5.42360408	      2.38714396	     -2.02254950	      7.46421553	      5.08328243	      3.16889071
      1.39166667	      0.25655946	     -2.11017969	     -2.38842604	      0.18661569	      1.04134785	      0.35282337	    -20.27049815	      5.75276343	     -6.86062545	    -16.43408765	     -3.27103394	     -5.85132242	      0.97352886	     19.00618093	      1.12343658	     -6.72158948	     -1.34548669	      4.54221509	      1.68845476	     -1.82686468	      7.59235578	      4.86860033	      3.25238465
      1.39583333	      0.23306665	     -1.93353136	     -2.47682662	      0.19288941	      1.04175001	      0.35264517	    -19.95561841	      5.39450573	     -7.12072344	    -17.51696191	     -3.74614528	     -5.80936337	      1.08156396	     18.80591492	      1.31840488	     -6.87503755	     -1.50481899	      4.24214282	      1.49609537	     -1.78145905	      7.54489300	      4.71429090	      3.25777156
      1.40000000	      0.27183399	     -1.77217411	     -2.50547709	      0.19902043	      1.04224007	      0.35232241	    -19.69285950	      5.05967407	     -7.33341109	    -18.56173299	     -4.68378024	     -5.79243766	      1.92878737	     18.50214376	      1.53204140	     -6.43235228	     -1.53554834	      3.13909029	      0.11259239	     -1.40817022	      7.66236589	      4.47778124	      3.34031640
      1.40416667	      0.28846011	     -1.54870478	     -2.58162018	      0.20533419	      1.04274124	      0.35220260	    -19.39538634	      4.64875685	     -7.54397063	    -19.64931662	     -5.41263638	     -5.56651608	      2.10648364	     18.26337923	      1.76785279	     -6.60317720	     -1.71322175	      2.76696626	      0.04029287	     -1.33198153	      7.79737168	      4.18053314	      3.36037579
